<svg width="174" height="30" viewBox="0 0 174 30" fill="none" xmlns="http://www.w3.org/2000/svg">
<g clip-path="url(#clip0_16237_334)">
<path d="M16.1704 0.811096C15.9875 0.323216 15.5211 0 15 0C14.479 0 14.0126 0.323216 13.8296 0.811096L10.3838 10H1.25004C0.744459 10 0.288663 10.3046 0.0951871 10.7716C-0.0982891 11.2387 0.00865556 11.7764 0.366153 12.1339L7.29701 19.0647L3.82962 28.3111C3.64523 28.8028 3.78784 29.3573 4.18658 29.6991C4.58532 30.0409 5.15515 30.0969 5.61286 29.8395L15 24.5592L24.3872 29.8395C24.8449 30.0969 25.4148 30.0409 25.8135 29.6991C26.2122 29.3573 26.3548 28.8028 26.1704 28.3111L22.7031 19.0647L29.6339 12.1339C29.9914 11.7764 30.0984 11.2387 29.9049 10.7716C29.7114 10.3046 29.2556 10 28.75 10H19.6163L16.1704 0.811096Z" fill="#FFE01B"/>
<path d="M52.1704 0.811096C51.9875 0.323216 51.5211 0 51 0C50.479 0 50.0126 0.323216 49.8296 0.811096L46.3838 10H37.25C36.7445 10 36.2887 10.3046 36.0952 10.7716C35.9017 11.2387 36.0087 11.7764 36.3662 12.1339L43.297 19.0647L39.8296 28.3111C39.6452 28.8028 39.7878 29.3573 40.1866 29.6991C40.5853 30.0409 41.1552 30.0969 41.6129 29.8395L51 24.5592L60.3872 29.8395C60.8449 30.0969 61.4148 30.0409 61.8135 29.6991C62.2122 29.3573 62.3548 28.8028 62.1704 28.3111L58.7031 19.0647L65.6339 12.1339C65.9914 11.7764 66.0984 11.2387 65.9049 10.7716C65.7114 10.3046 65.2556 10 64.75 10H55.6163L52.1704 0.811096Z" fill="#FFE01B"/>
<path d="M88.1704 0.811096C87.9875 0.323216 87.5211 0 87 0C86.479 0 86.0126 0.323216 85.8296 0.811096L82.3838 10H73.25C72.7445 10 72.2887 10.3046 72.0952 10.7716C71.9017 11.2387 72.0087 11.7764 72.3662 12.1339L79.297 19.0647L75.8296 28.3111C75.6452 28.8028 75.7878 29.3573 76.1866 29.6991C76.5853 30.0409 77.1552 30.0969 77.6129 29.8395L87 24.5592L96.3872 29.8395C96.8449 30.0969 97.4148 30.0409 97.8135 29.6991C98.2122 29.3573 98.3548 28.8028 98.1704 28.3111L94.7031 19.0647L101.634 12.1339C101.991 11.7764 102.098 11.2387 101.905 10.7716C101.711 10.3046 101.256 10 100.75 10H91.6163L88.1704 0.811096Z" fill="#FFE01B"/>
<path d="M124.17 0.811096C123.987 0.323216 123.521 0 123 0C122.479 0 122.013 0.323216 121.83 0.811096L118.384 10H109.25C108.744 10 108.289 10.3046 108.095 10.7716C107.902 11.2387 108.009 11.7764 108.366 12.1339L115.297 19.0647L111.83 28.3111C111.645 28.8028 111.788 29.3573 112.187 29.6991C112.585 30.0409 113.155 30.0969 113.613 29.8395L123 24.5592L132.387 29.8395C132.845 30.0969 133.415 30.0409 133.813 29.6991C134.212 29.3573 134.355 28.8028 134.17 28.3111L130.703 19.0647L137.634 12.1339C137.991 11.7764 138.098 11.2387 137.905 10.7716C137.711 10.3046 137.256 10 136.75 10H127.616L124.17 0.811096Z" fill="#FFE01B"/>
<path fill-rule="evenodd" clip-rule="evenodd" d="M160.17 0.811096C159.987 0.323216 159.521 0 159 0C158.479 0 158.013 0.323216 157.83 0.811096L154.384 10H145.25C144.744 10 144.289 10.3046 144.095 10.7716C143.902 11.2387 144.009 11.7764 144.366 12.1339L151.297 19.0647L147.83 28.3111C147.645 28.8028 147.788 29.3573 148.187 29.6991C148.585 30.0409 149.155 30.0969 149.613 29.8395L159 24.5592L168.387 29.8395C168.845 30.0969 169.415 30.0409 169.813 29.6991C170.212 29.3573 170.355 28.8028 170.17 28.3111L166.703 19.0647L173.634 12.1339C173.991 11.7764 174.098 11.2387 173.905 10.7716C173.711 10.3046 173.256 10 172.75 10H163.616L160.17 0.811096ZM159 4.81L159 21.875C159.211 21.875 159.423 21.9285 159.613 22.0355L166.627 25.9807L164.08 19.1889C163.908 18.7299 164.02 18.2127 164.366 17.8661L169.732 12.5H162.75C162.229 12.5 161.763 12.1768 161.58 11.6889L159 4.81Z" fill="#FFE01B"/>
</g>
<defs>
<clipPath id="clip0_16237_334">
<rect width="174" height="30" fill="white"/>
</clipPath>
</defs>
</svg>
